<?xml version="1.0" encoding="UTF-8"?>
<svg width="35px" height="34px" viewBox="0 0 35 34" version="1.1" xmlns="http://www.w3.org/2000/svg" xmlns:xlink="http://www.w3.org/1999/xlink">
    <!-- Generator: Sketch 51.1 (57501) - http://www.bohemiancoding.com/sketch -->
    <title>artificial-intelligence (1)</title>
    <desc>Created with Sketch.</desc>
    <defs></defs>
    <g id="Welcome" stroke="none" stroke-width="1" fill="none" fill-rule="evenodd">
        <g id="artificial-intelligence-(1)" fill="#FFFFFF" fill-rule="nonzero">
            <path d="M9.17355859,15.7855625 C9.17355859,16.1207148 9.44555859,16.3927148 9.78071094,16.3927148 C10.1158633,16.3927148 10.3878633,16.1207148 10.3878633,15.7855625 C10.3872656,15.4504102 10.1158633,15.1784102 9.78071094,15.1784102 C9.44555859,15.1784102 9.17355859,15.4504102 9.17355859,15.7855625 Z" id="Shape"></path>
            <path d="M16.4592539,23.6784102 L11.4927969,23.6784102 L11.0993398,25.6443672 C11.9098945,25.9837695 12.3591328,26.8568125 12.1642969,27.7141172 C11.9693945,28.5714219 11.1867969,29.1639648 10.3088398,29.1196719 C9.43154687,29.0747148 8.71263281,28.4062695 8.6051875,27.5338242 C8.49774219,26.6613789 9.03264453,25.8386719 9.87348047,25.5824766 L10.3021328,23.4398789 C10.4168828,22.8734336 10.9141328,22.4654336 11.4927305,22.4641719 L16.4591875,22.4641719 L16.4591875,20.0356289 L15.1331875,20.0356289 C14.8374805,20.8722813 13.9820352,21.3737813 13.1077305,21.2238359 C12.2334258,21.0738906 11.5941328,20.3155313 11.5941328,19.428543 C11.5941328,18.5414883 12.2334258,17.7831953 13.1077305,17.63325 C13.9820352,17.4833047 14.8374805,17.9848047 15.1331875,18.821457 L16.4591875,18.821457 L16.4591875,16.3929141 L11.4903398,16.3929141 C11.1946328,17.2295664 10.3391875,17.7310664 9.46488281,17.5811211 C8.59057812,17.4311758 7.95128516,16.6728164 7.95128516,15.7858281 C7.95128516,14.8988398 8.59057812,14.1404805 9.46488281,13.9905352 C10.3391875,13.8405898 11.1946328,14.3420898 11.4903398,15.1787422 L16.4591875,15.1787422 L16.4591875,10.3944375 L14.8119805,12.7015898 C14.5818828,13.0209375 14.2127305,13.2097969 13.8192734,13.2091328 C13.6529258,13.2091328 13.4883711,13.1745352 13.3359687,13.1077305 L11.1308164,12.1399258 C10.5364141,12.8011328 9.55526172,12.9425781 8.79816406,12.4768711 C8.04106641,12.0111641 7.72537109,11.0707188 8.04770703,10.2425664 C8.37004297,9.41441406 9.23830469,8.93535938 10.11075,9.10356641 C10.9831953,9.27177344 11.611,10.0397617 11.6019023,10.9286094 C11.6019023,10.958957 11.5945977,10.9875117 11.5928047,11.0172617 L13.8228594,11.995957 L16.4590547,8.30516406 L16.4590547,4.55341016 C16.46025,2.09020313 14.5015977,0.0733125 12.0396523,0.0022578125 C9.57770703,-0.068796875 7.5055,1.83221484 7.36525,4.29110547 C9.08404297,4.4890625 10.608,5.48655078 11.4780547,6.98135547 C11.5867617,7.16895313 11.5867617,7.4003125 11.4786523,7.58850781 C11.3699453,7.77670313 11.1695977,7.89271484 10.9528477,7.89271484 C10.7355,7.89271484 10.5351523,7.77736719 10.4264453,7.58976953 C9.46475,5.92376953 7.50423828,5.11201953 5.64579297,5.60926953 C3.78734766,6.10651953 2.49534766,7.79071484 2.49475,9.71417187 C2.49295703,10.2636172 2.59920703,10.8076172 2.80805469,11.3158242 C3.48440234,11.0614219 4.20085937,10.9296719 4.92335937,10.9284766 C5.25851172,10.9284766 5.53051172,11.2004766 5.53051172,11.5356289 C5.53051172,11.8707812 5.25851172,12.1427812 4.92335937,12.1427812 C4.14866406,12.1427812 3.38605469,12.3291836 2.69881641,12.6873789 C2.54887109,12.7650742 2.40310937,12.8494766 2.26226172,12.9417812 C2.18576172,12.9921836 2.11351172,13.0468359 2.04006641,13.1008242 C1.94776172,13.1694219 1.85731641,13.2392812 1.77052344,13.3133242 C1.69156641,13.3807266 1.61446875,13.4499219 1.54042578,13.5221719 C1.48398047,13.5768242 1.43112109,13.6344648 1.37713281,13.6921719 C1.2399375,13.8391289 1.11183984,13.9945195 0.9934375,14.1572148 C0.955785156,14.2100078 0.915742187,14.2604102 0.879882812,14.3144648 C0.817925781,14.4073672 0.760882812,14.5045195 0.705035156,14.6022695 C0.663132812,14.6757148 0.624285156,14.7498242 0.586632812,14.8250625 C0.541675781,14.9149102 0.494925781,15.0041602 0.455480469,15.0970625 C0.387480469,15.2567695 0.327980469,15.4206602 0.277578125,15.5870078 C0.256925781,15.6538125 0.242382812,15.7230078 0.224785156,15.7910078 C0.1901875,15.9252148 0.1604375,16.0612148 0.137992187,16.1990078 C0.127699219,16.2627578 0.116742187,16.3265078 0.108839844,16.3908555 C0.0821445312,16.5923984 0.0681328125,16.7963984 0.0663398437,16.9998008 C0.068796875,18.3707578 0.649785156,19.6767031 1.6649375,20.5977578 C2.34553516,19.8874102 3.19673047,19.3634648 4.13724219,19.0750625 C4.45778516,18.9767148 4.79778516,19.1564102 4.89619922,19.4770195 C4.99454687,19.7975625 4.81485156,20.1375625 4.49424219,20.2359766 C3.59808984,20.5110312 2.80944922,21.0568242 2.23629687,21.7987812 C2.23264453,21.8042266 2.23204687,21.8109336 2.22779687,21.8163789 C1.78519922,22.3864766 1.48769922,23.0555859 1.36019922,23.7659336 C1.35535156,23.7920312 1.34565625,23.8163359 1.34140625,23.8424336 C1.30069922,24.0895312 1.28071094,24.3390859 1.28071094,24.5892383 C1.27221094,26.5290312 2.50046094,28.2594453 4.33466797,28.8914336 C4.32796094,28.7730312 4.31647266,28.6558906 4.31647266,28.5356289 C4.31222266,27.0894336 4.78151562,25.6814219 5.65157031,24.5260195 C5.85377734,24.2588672 6.23322266,24.2054766 6.50097266,24.4064219 C6.76872266,24.6073672 6.82277734,24.9874766 6.62242969,25.2552266 C5.68802734,26.5010742 5.32983203,28.0857266 5.637625,29.6120742 C5.646125,29.6545742 5.65767969,29.6952812 5.667375,29.7371172 C5.69652734,29.8652148 5.72807031,29.9927148 5.76572266,30.1178242 C5.77966797,30.1645742 5.79666797,30.2095312 5.811875,30.2550195 C5.85191797,30.3746172 5.89382031,30.4930195 5.94183203,30.6089648 C5.95942969,30.6514648 5.97828906,30.6933672 5.99708203,30.7352695 C6.04867969,30.8524766 6.10392969,30.9678242 6.16342969,31.0807148 C6.18288672,31.1177695 6.202875,31.1547578 6.22352734,31.1912148 C6.28847266,31.3071602 6.35773437,31.4207148 6.43058203,31.5312148 C6.45063672,31.5615625 6.47002734,31.5925078 6.49067969,31.6222578 C6.57023437,31.7388008 6.65523437,31.8511602 6.74322266,31.9604648 C6.76082031,31.9823125 6.77722266,32.0047578 6.79541797,32.0266719 C6.89682031,32.1481289 7.00247266,32.2646719 7.11357031,32.3769648 C7.12147266,32.3848672 7.12811328,32.3933672 7.13601562,32.4012695 C7.37707031,32.6410625 7.63930859,32.8584766 7.92047266,33.0497266 C7.96051562,33.0770195 8.00301562,33.1013242 8.04372266,33.1274219 C8.140875,33.1899766 8.238625,33.2506719 8.33942969,33.3071172 C8.39892969,33.3405195 8.46022266,33.3702695 8.52098437,33.4012148 C8.60717969,33.4449102 8.69463672,33.4880078 8.78328906,33.5275195 C8.85128906,33.5578672 8.92108203,33.5864219 8.99094141,33.6137148 C9.07653906,33.6477148 9.16339844,33.6792578 9.25138672,33.7090078 C9.32423437,33.7339102 9.39708203,33.7575508 9.47119141,33.7788008 C9.56223437,33.8054961 9.65513672,33.8286055 9.74803906,33.8504531 C9.82028906,33.8674531 9.89194141,33.8850508 9.96478906,33.8989961 C10.0710391,33.9190508 10.179082,33.9341914 10.2877891,33.9482031 C10.3497461,33.9567031 10.4104414,33.9669961 10.472332,33.9731055 C10.6447891,33.9895078 10.818375,33.9998008 10.995082,33.9998008 C14.0113867,33.9961484 16.4557344,31.5518008 16.4593867,28.5354961 L16.4593867,23.6784102 L16.4592539,23.6784102 Z" id="Shape"></path>
            <path d="M12.8164062,19.4284102 C12.8164062,19.7635625 13.0884062,20.0355625 13.4235586,20.0355625 C13.7587109,20.0355625 14.0307109,19.7635625 14.0307109,19.4284102 C14.0301133,19.0932578 13.7587109,18.8212578 13.4235586,18.8212578 C13.0884062,18.8212578 12.8164062,19.0932578 12.8164062,19.4284102 Z" id="Shape"></path>
            <path d="M9.17355859,10.9284102 C9.17355859,11.2635625 9.44555859,11.5355625 9.78071094,11.5355625 C10.1158633,11.5349648 10.3872656,11.2635625 10.3878633,10.9284102 C10.3878633,10.5932578 10.1158633,10.3212578 9.78071094,10.3212578 C9.44555859,10.3212578 9.17355859,10.5932578 9.17355859,10.9284102 Z" id="Shape"></path>
            <path d="M17.6735586,14.0254648 L17.6735586,19.9742695 C19.0870156,19.6858672 20.1021016,18.4424766 20.1021016,16.9998672 C20.1021016,15.5572578 19.0869492,14.3138008 17.6735586,14.0254648 Z" id="Shape"></path>
            <path d="M17.6735586,24.2545508 C21.4481562,23.9418437 24.3521016,20.7871484 24.3521016,16.9998008 C24.3521016,13.2124531 21.4481562,10.0577578 17.6735586,9.74445312 L17.6735586,12.7984102 C19.7639609,13.0977031 21.3164062,14.8882148 21.3164062,16.9998672 C21.3164062,19.1115195 19.7639609,20.9019648 17.6735586,21.2013242 L17.6735586,24.2545508 Z" id="Shape"></path>
            <path d="M9.78071094,27.3212578 C9.78071094,27.6564102 10.0527109,27.9284102 10.3878633,27.9284102 C10.7230156,27.9284102 10.9950156,27.6564102 10.9950156,27.3212578 C10.9950156,26.9861055 10.7230156,26.7141055 10.3878633,26.7141055 C10.0527109,26.7141055 9.78130859,26.9861055 9.78071094,27.3212578 Z" id="Shape"></path>
            <path d="M33.8903633,14.5712578 L30.6907109,14.5712578 C30.4053633,14.5712578 30.1588633,14.3727031 30.098168,14.0952578 C29.7678633,12.5840508 29.1704727,11.1439648 28.334418,9.84280078 C28.179625,9.60234375 28.213625,9.28724609 28.4157656,9.08510547 L30.6798203,6.82105078 C29.7090273,5.51510547 28.5517656,4.35784375 27.2458203,3.38705078 L24.9817656,5.65110547 C24.7795586,5.8533125 24.4644609,5.8873125 24.2240703,5.73245312 C22.9229727,4.89639844 21.4828203,4.29900781 19.9716133,3.96870312 C19.6935703,3.90741016 19.4950156,3.66091016 19.4950156,3.37549609 L19.4950156,0.175910156 C18.1835586,-0.0122851562 16.8545703,-0.0456875 15.5358086,0.0769648438 C16.8873086,1.1698125 17.6735586,2.81516016 17.6735586,4.55341016 L17.6735586,8.53021484 C22.1196562,8.84405078 25.5664062,12.5428125 25.5664062,16.9998008 C25.5664062,21.4567891 22.1196562,25.1549531 17.6735586,25.4688555 L17.6735586,28.5355625 C17.6717656,30.6320078 16.6833086,32.6058672 15.0045586,33.8638672 C16.4969062,34.0502695 18.0068516,34.0363242 19.4950156,33.8238242 L19.4950156,30.6241719 C19.4950156,30.3388242 19.6935703,30.0923242 19.9710156,30.0316289 C21.4822227,29.7013242 22.9223086,29.1039336 24.2234727,28.2678789 C24.4639297,28.1136836 24.7790273,28.1476836 24.981168,28.3492266 L27.2452227,30.6132812 C28.5517656,29.6424883 29.7084297,28.4852266 30.6792227,27.1792812 L28.415168,24.9152266 C28.213625,24.7130195 28.179625,24.3979219 28.3338203,24.1575312 C29.169875,22.8564336 29.7672656,21.4162812 30.0975703,19.9050742 C30.1588633,19.6270312 30.4053633,19.4284766 30.6907773,19.4284766 L33.8904297,19.4284766 C34.1253086,17.8176602 34.1253086,16.1814102 33.8903633,14.5712578 Z" id="Shape"></path>
        </g>
    </g>
</svg>