<?xml version="1.0" encoding="UTF-8"?>
<svg width="35px" height="34px" viewBox="0 0 35 34" version="1.1" xmlns="http://www.w3.org/2000/svg" xmlns:xlink="http://www.w3.org/1999/xlink">
    <!-- Generator: Sketch 51.1 (57501) - http://www.bohemiancoding.com/sketch -->
    <title>house-black-silhouette-without-door</title>
    <desc>Created with Sketch.</desc>
    <defs></defs>
    <g id="Welcome" stroke="none" stroke-width="1" fill="none" fill-rule="evenodd">
        <g id="house-black-silhouette-without-door" fill="#FFFFFF" fill-rule="nonzero">
            <path d="M34.5614977,16.5887157 C35.1959557,15.8885505 35.1346891,14.8154067 34.4247031,14.1924016 L18.7827633,0.458815963 C18.0727773,-0.16418905 16.9344951,-0.151138228 16.2394549,0.488237552 L0.544348915,14.9246214 C-0.150691216,15.5639972 -0.184804315,16.6357673 0.468820917,17.317501 L0.862319507,17.7287164 C1.5151461,18.4104501 2.57037036,18.4917315 3.21772061,17.9097107 L4.3906864,16.8556851 L4.3906864,32.2867935 C4.3906864,33.2335504 5.15520773,34 6.09805271,34 L12.2160488,34 C13.1588938,34 13.9234151,33.2335504 13.9234151,32.2867935 L13.9234151,21.4912454 L21.7269861,21.4912454 L21.7269861,32.2867935 C21.7134094,33.2328635 22.3880273,33.9993131 23.3308723,33.9993131 L29.8144147,33.9993131 C30.7572597,33.9993131 31.521781,33.2328635 31.521781,32.2861066 L31.521781,17.0729698 C31.521781,17.0729698 31.8457984,17.3577983 32.2454579,17.710285 C32.6444328,18.0620847 33.4824285,17.7800038 34.1168865,17.0791518 L34.5614977,16.5887157 Z" id="Shape"></path>
        </g>
    </g>
</svg>